# xmcd
#
# Track frame offsets: 
#        225
#        12785
#        27700
#        56827
#        72252
#        89075
#        105077
#        124375
#        139647
#        153200
#        168052
#        182020
#        195007
#        208527
#        222222
#        231782
#        247352
#        261935
#        275642
#        289845
#        306467
#
# Disc length: 4272 seconds
#
# Revision: 2
# Processed by: cddbd v1.5.2PL0 Copyright (c) Steve Scherf et al.
# Submitted via: ExactAudioCopy v1.0b2
#
DISCID=3810ad15
DTITLE=Various Artist - Country Music Hall Of Fame Vol. 2
DYEAR=1988
DGENRE=Country
TTITLE0=Mel Tillis - Coca Cola Cowboy
TTITLE1=Cristy Lane - One Day AT A Time
TTITLE2=Alabama - My Home's In Alabama
TTITLE3=David Frizzell and Shelly West - You're The Reason God Made Okla
TTITLE3=homa
TTITLE4=Oak Ridge Boys - Elvira
TTITLE5=Willie Nelson - Alway On My Mind
TTITLE6=Hank Williams, Jr. - A Country Boy Can Survive
TTITLE7=Sylvia - Nobody
TTITLE8=Ricky Skaggs - Crying My Heart Out Over You
TTITLE9=Jerry Reed - She Got The Goldmine (I Got The Shaft)
TTITLE10=John Anderson - Swingin'
TTITLE11=Reba McEntire - You're The First Time I Thought About Leaving
TTITLE12=Conway Twitty - I Don't Know A Thing About Love
TTITLE13=Merle Haggard - That's The Way Love Goes
TTITLE14=George Strait - Right Or Wrong
TTITLE15=Statler Brothers - Elizabeth
TTITLE16=Lee Greenwood - Dixie Road
TTITLE17=Mel McDaniel - Baby's Got Her Blue Jeans On
TTITLE18=Randy Travis - On The Other Hand
TTITLE19=Dan Seals - Bop
TTITLE20=Moe Bandy - Till I'm Too Old To Die Young
EXTD=
EXTT0=Mel Tillis\n
EXTT1=
EXTT2=
EXTT3=
EXTT4=
EXTT5=
EXTT6=
EXTT7=
EXTT8=
EXTT9=
EXTT10=
EXTT11=
EXTT12=
EXTT13=
EXTT14=
EXTT15=
EXTT16=
EXTT17=
EXTT18=
EXTT19=
EXTT20=
PLAYORDER=
